<?xml version='1.0' encoding='iso-8859-1'?>
<!DOCTYPE svg PUBLIC '-//W3C//DTD SVG 1.1//EN' 'http://www.w3.org/Graphics/SVG/1.1/DTD/svg11.dtd'>
<svg version="1.1" xmlns="http://www.w3.org/2000/svg" viewBox="0 0 297 297" xmlns:xlink="http://www.w3.org/1999/xlink" enable-background="new 0 0 297 297">
  <g>
    <path d="m273.053,97.417h-14.314l-103.591-93.337c-3.793-3.416-9.555-3.419-13.351-0.007l-138.49,124.526c-3.072,2.764-4.125,7.135-2.645,10.992 1.478,3.858 5.184,6.406 9.316,6.406h31.343v139.508c0,5.511 4.468,9.978 9.979,9.978h194.054c5.511,0 9.978-4.468 9.978-9.978v-62.764h17.722c13.204,0 23.947-10.743 23.947-23.947v-77.43c-0.001-13.203-10.744-23.947-23.948-23.947zm-225.554,28.623h-11.5l112.463-101.122 80.464,72.499h-11.887l-62.072-55.325c-3.782-3.373-9.494-3.372-13.277-0.001l-94.191,83.949zm13.779,149.488v-135.036l87.051-77.584 38.72,34.51h-34.231c-13.204,0-23.947,10.743-23.947,23.947v77.43c0,13.204 10.743,23.947 23.947,23.947h20.218c2.163,0 3.991,1.828 3.991,3.991v17.749c0,11.967 7.569,17.418 14.602,17.418 2.941,0 7.485-0.938 12.431-5.4l29.886-26.969c0.422-0.381 0.908-0.759 1.432-1.13v47.127h-174.1zm215.766-76.734c0,2.163-1.828,3.991-3.991,3.991h-21.453c-10.15,0-23.487,5.128-31.024,11.929l-23.594,21.291v-9.272c0-13.204-10.743-23.947-23.947-23.947h-20.218c-2.163,0-3.991-1.828-3.991-3.991v-77.43c0-2.163 1.828-3.991 3.991-3.991h120.236c2.163,0 3.991,1.828 3.991,3.991v77.429z"/>
    <path d="m214.182,126.853c-5.511,0-9.978,4.467-9.978,9.978v32.928c0,5.511 4.467,9.978 9.978,9.978 5.511,0 9.979-4.467 9.979-9.978v-32.929c-0.001-5.51-4.468-9.977-9.979-9.977z"/>
    <path d="m214.179,183.724c-2.624,0-5.198,1.068-7.055,2.925-1.856,1.855-2.923,4.43-2.923,7.054 0,2.635 1.066,5.199 2.923,7.055 1.856,1.856 4.431,2.924 7.055,2.924 2.634,0 5.199-1.067 7.054-2.924 1.866-1.855 2.925-4.43 2.925-7.055 0-2.624-1.059-5.188-2.925-7.054-1.855-1.857-4.42-2.925-7.054-2.925z"/>
  </g>
</svg>
