<?xml version="1.0" encoding="UTF-8" standalone="no"?>
<svg
   xmlns:dc="http://purl.org/dc/elements/1.1/"
   xmlns:cc="http://creativecommons.org/ns#"
   xmlns:rdf="http://www.w3.org/1999/02/22-rdf-syntax-ns#"
   xmlns:svg="http://www.w3.org/2000/svg"
   xmlns="http://www.w3.org/2000/svg"
   xmlns:sodipodi="http://sodipodi.sourceforge.net/DTD/sodipodi-0.dtd"
   xmlns:inkscape="http://www.inkscape.org/namespaces/inkscape"
   height="24"
   version="1.1"
   width="24"
   id="svg3749"
   sodipodi:docname="iconfinder_book_285636.svg"
   inkscape:version="0.92.4 (5da689c313, 2019-01-14)">
  <metadata
     id="metadata3755">
    <rdf:RDF>
      <cc:Work
         rdf:about="">
        <dc:format>image/svg+xml</dc:format>
        <dc:type
           rdf:resource="http://purl.org/dc/dcmitype/StillImage" />
      </cc:Work>
    </rdf:RDF>
  </metadata>
  <defs
     id="defs3753" />
  <sodipodi:namedview
     pagecolor="#ffffff"
     bordercolor="#666666"
     borderopacity="1"
     objecttolerance="10"
     gridtolerance="10"
     guidetolerance="10"
     inkscape:pageopacity="0"
     inkscape:pageshadow="2"
     inkscape:window-width="1366"
     inkscape:window-height="705"
     id="namedview3751"
     showgrid="false"
     inkscape:zoom="22.333333"
     inkscape:cx="5.3731343"
     inkscape:cy="12"
     inkscape:window-x="-8"
     inkscape:window-y="-8"
     inkscape:window-maximized="1"
     inkscape:current-layer="svg3749" />
  <g
     transform="translate(0 -1028.4)"
     id="g3747">
    <path
       d="m3 8v2 1 3 1 5 1c0 1.105 0.8954 2 2 2h14c1.105 0 2-0.895 2-2v-1-5-4-3h-18z"
       fill="#16a085"
       transform="translate(0 1028.4)"
       id="path3735" />
    <path
       d="m3 1035.4v2 1 3 1 5 1c0 1.1 0.8954 2 2 2h14c1.105 0 2-0.9 2-2v-1-5-4-3h-18z"
       fill="#ecf0f1"
       id="path3737" />
    <path
       d="m3 1034.4v2 1 3 1 5 1c0 1.1 0.8954 2 2 2h14c1.105 0 2-0.9 2-2v-1-5-4-3h-18z"
       fill="#bdc3c7"
       id="path3739" />
    <path
       d="m3 1033.4v2 1 3 1 5 1c0 1.1 0.8954 2 2 2h14c1.105 0 2-0.9 2-2v-1-5-4-3h-18z"
       fill="#ecf0f1"
       id="path3741" />
    <path
       d="m5 1c-1.1046 0-2 0.8954-2 2v1 4 2 1 3 1 5 1c0 1.105 0.8954 2 2 2h2v-1h-1.5c-0.8284 0-1.5-0.672-1.5-1.5s0.6716-1.5 1.5-1.5h12.5 1c1.105 0 2-0.895 2-2v-1-5-4-3-1c0-1.1046-0.895-2-2-2h-4-10z"
       fill="#16a085"
       transform="translate(0 1028.4)"
       id="path3743" />
    <path
       d="m8 1v18h1 9 1c1.105 0 2-0.895 2-2v-1-5-4-3-1c0-1.1046-0.895-2-2-2h-4-6-1z"
       fill="#1abc9c"
       transform="translate(0 1028.4)"
       id="path3745" />
  </g>
  <g
     id="g3777"
     style="fill:#afe9dd"
     transform="matrix(0.72985783,0,0,0.72985783,5.8317181,7.4333663)">
    <rect
       y="9.4029856"
       x="9.985075"
       height="1.2537314"
       width="9.4477615"
       id="rect3757"
       style="fill:#afe9dd" />
    <rect
       transform="rotate(90)"
       y="-15.335821"
       x="5.3059702"
       height="1.2537314"
       width="9.4477615"
       id="rect3757-7"
       style="fill:#afe9dd" />
  </g>
  <g
     inkscape:groupmode="layer"
     id="layer1"
     inkscape:label="plusz" />
</svg>
